# Blender v2.74 (sub 0) OBJ File: 'N.blend'
# www.blender.org
o Curve.001_Mesh.002
v -0.675000 0.900000 0.075000
v -0.675000 -1.200000 0.075000
v -0.375000 -0.900000 0.075000
v -0.375000 0.150000 0.075000
v 0.675000 -0.900000 0.075000
v 0.375000 -0.150000 0.075000
v -0.675000 0.900000 0.131250
v -0.675000 -1.200000 0.131250
v -0.375000 -0.900000 0.131250
v -0.375000 0.150000 0.131250
v 0.675000 -0.900000 0.131250
v 0.375000 -0.150000 0.131250
v -0.615200 0.755630 0.187500
v -0.615200 -1.055630 0.187500
v -0.434800 -0.875230 0.187500
v -0.434800 0.294370 0.187500
v 0.434800 -0.294370 0.187500
v -0.615200 0.755630 0.150000
v -0.615200 -1.055630 0.150000
v -0.434800 -0.875230 0.150000
v -0.434800 0.294370 0.150000
v 0.615200 -0.755630 0.150000
v 0.434800 -0.294370 0.150000
v -0.658389 0.859897 0.056250
v -0.658389 -1.159897 0.056250
v -0.391611 -0.893120 0.056250
v -0.391611 0.190103 0.056250
v 0.391611 -0.190103 0.056250
v 0.391610 -0.190103 -0.056250
v -0.391611 0.190103 -0.056250
v -0.391611 -0.893120 -0.056250
v -0.658389 -1.159897 -0.056250
v -0.658389 0.859897 -0.056250
v 0.434799 -0.294370 -0.150000
v -0.434801 0.294370 -0.150000
v -0.434801 -0.875230 -0.150000
v -0.615200 -1.055630 -0.150000
v -0.615200 0.755630 -0.150000
v 0.434799 -0.294370 -0.187500
v -0.434801 0.294370 -0.187500
v -0.434801 -0.875230 -0.187500
v -0.615200 -1.055630 -0.187500
v -0.615200 0.755630 -0.187500
v 0.375000 -0.150000 -0.131250
v 0.675000 -0.900000 -0.131250
v -0.375001 0.150000 -0.131250
v -0.375001 -0.900000 -0.131250
v -0.675000 -1.200000 -0.131250
v -0.675000 0.900000 -0.131250
v 0.375000 -0.150000 -0.075000
v 0.675000 -0.900000 -0.075000
v -0.375001 0.150000 -0.075000
v -0.375001 -0.900000 -0.075000
v -0.675000 -1.200000 -0.075000
v -0.675000 0.900000 -0.075000
v 0.675000 1.200000 0.075000
v 0.375000 0.900000 0.075000
v 0.675000 1.200000 0.131250
v 0.375000 0.900000 0.131250
v 0.615200 -0.755630 0.187500
v 0.615200 1.055630 0.187500
v 0.434800 0.875230 0.187500
v 0.615200 1.055630 0.150000
v 0.434800 0.875230 0.150000
v 0.658389 -0.859897 0.056250
v 0.658389 1.159897 0.056250
v 0.391611 0.893120 0.056250
v 0.391611 0.893120 -0.056250
v 0.658389 1.159897 -0.056250
v 0.658389 -0.859897 -0.056250
v 0.434801 0.875230 -0.150000
v 0.615200 1.055630 -0.150000
v 0.615200 -0.755630 -0.150000
v 0.434801 0.875230 -0.187500
v 0.615200 1.055630 -0.187500
v 0.615200 -0.755630 -0.187500
v 0.375001 0.900000 -0.131250
v 0.675000 1.200000 -0.131250
v 0.375001 0.900000 -0.075000
v 0.675000 1.200000 -0.075000
vt 0.788856 0.524841
vt 0.769354 0.524841
vt 0.769354 0.160794
vt 0.788856 0.160794
vt 0.749851 0.181527
vt 0.762853 0.181527
vt 0.762853 0.574895
vt 0.834362 0.070684
vt 0.840863 0.056780
vt 0.840863 0.160794
vt 0.749851 0.734820
vt 0.762853 0.734820
vt 0.762853 0.370773
vt 0.749851 0.169382
vt 0.749851 0.106835
vt 0.788856 0.056780
vt 0.769354 0.056780
vt 0.769354 0.784874
vt 0.788856 0.784874
vt 0.769354 0.420827
vt 0.866866 0.106835
vt 0.866866 0.169382
vt 0.879868 0.169382
vt 0.834362 0.770970
vt 0.834362 0.406923
vt 0.840863 0.420827
vt 0.749851 0.574895
vt 0.762853 0.169382
vt 0.879868 0.574895
vt 0.860366 0.524841
vt 0.860366 0.056780
vt 0.860366 0.160794
vt 0.834362 0.163179
vt 0.840863 0.524841
vt 0.088531 0.697135
vt 0.088531 0.307835
vt 0.088531 0.478853
vt 0.762853 0.106835
vt 0.879868 0.734820
vt 0.879868 0.106835
vt 0.795357 0.770970
vt 0.795357 0.070684
vt 0.860366 0.784874
vt 0.860366 0.420827
vt 0.840863 0.784874
vt 0.866866 0.734820
vt 0.795357 0.163179
vt 0.866866 0.574895
vt 0.788856 0.420827
vt 0.795357 0.406923
vt 0.866866 0.370773
vt 0.425818 0.142236
vt 0.425818 0.725809
vt 0.458323 0.725809
vt 0.425818 0.422436
vt 0.458323 0.422436
vt 0.458323 0.142236
vt 0.458323 0.219315
vt 0.425818 0.219315
vt 0.458323 0.532287
vt 0.199760 0.478853
vt 0.199760 0.697135
vt 0.199760 0.868152
vt 0.795357 0.538745
vt 0.795357 0.166553
vt 0.879868 0.181527
vt 0.866866 0.181527
vt 0.834362 0.166553
vt 0.834362 0.538745
vt 0.425818 0.532287
vt 0.458323 0.222126
vt 0.749851 0.370773
vt 0.088531 0.196607
vt 0.088531 0.263492
vt 0.088531 0.979381
vt 0.088531 0.912495
vt 0.088531 0.868152
vt 0.879868 0.370773
vt 0.199760 0.979381
vt 0.199760 0.307835
vt 0.199760 0.196607
vt 0.199760 0.912495
vt 0.199760 0.263492
vt 0.425818 0.222126
vn 1.000000 0.000000 0.000000
vn -0.707100 -0.707100 0.000000
vn 0.707100 0.707100 0.000000
vn 0.529300 -0.529300 0.663100
vn 0.484500 -0.484500 0.728400
vn -1.000000 0.000000 0.000000
vn -0.707100 0.707100 0.000000
vn 0.529300 0.529300 0.663100
vn 0.685200 0.000000 -0.728400
vn -0.529300 0.529300 0.663100
vn 0.707100 -0.707100 0.000000
vn 0.748500 0.000000 0.663100
vn -0.000000 -0.000000 1.000000
vn -0.685200 0.000000 -0.728400
vn -0.748500 -0.000000 -0.663100
vn 0.484500 0.484500 0.728400
vn 0.484500 0.484500 -0.728400
vn -0.748500 -0.000000 0.663100
vn -0.685200 0.000000 0.728400
vn 0.748500 -0.000000 -0.663100
vn 0.685200 0.000000 0.728400
vn 0.484500 -0.484500 -0.728400
vn 0.529300 0.529300 -0.663100
vn -0.484500 -0.484500 0.728400
vn 0.529300 -0.529300 -0.663100
vn -0.484500 0.484500 0.728400
vn -0.000000 -0.000000 -1.000000
vn -0.484500 0.484500 -0.728400
vn -0.529300 0.529300 -0.663100
vn -0.529300 -0.529300 -0.663100
vn -0.484500 -0.484500 -0.728400
vn -0.529300 -0.529300 0.663100
s off
f 4/1/1 10/2/1 9/3/1
f 5/4/2 11/3/2 10/2/2
f 60/5/3 22/6/3 21/7/3
f 32/8/4 54/9/4 53/10/4
f 13/11/2 18/12/2 23/13/2
f 9/3/5 15/14/5 14/15/5
f 2/16/6 8/17/6 7/18/6
f 1/19/3 7/18/3 12/20/3
f 37/21/7 36/22/7 41/23/7
f 33/24/8 29/25/8 50/26/8
f 16/27/6 21/7/6 20/28/6
f 41/23/9 40/29/9 46/30/9
f 69/8/10 80/9/10 79/10/10
f 48/31/11 47/32/11 53/10/11
f 31/33/12 53/10/12 52/34/12
f 21/35/13 22/36/13 23/37/13
f 14/15/1 19/38/1 18/12/1
f 43/39/14 42/40/14 48/31/14
f 1/19/15 24/41/15 25/42/15
f 12/20/16 7/18/16 13/11/16
f 43/39/17 49/43/17 44/44/17
f 32/8/18 33/24/18 55/45/18
f 8/17/19 14/15/19 13/11/19
f 38/46/1 37/21/1 42/40/1
f 4/1/20 3/4/20 26/47/20
f 36/22/6 35/48/6 40/29/6
f 3/4/11 9/3/11 8/17/11
f 44/44/3 49/43/3 55/45/3
f 49/43/6 48/31/6 54/9/6
f 10/2/21 16/27/21 15/14/21
f 42/40/22 41/23/22 47/32/22
f 6/49/23 28/50/23 24/41/23
f 15/14/7 20/28/7 19/38/7
f 34/51/2 38/46/2 43/39/2
f 10/2/24 11/3/24 60/5/24
f 3/4/25 2/16/25 25/42/25
f 46/30/2 45/32/2 51/10/2
f 47/32/1 46/30/1 52/34/1
f 25/52/6 24/53/6 33/54/6
f 24/53/3 28/55/3 29/56/3
f 25/52/11 32/57/11 31/58/11
f 61/15/6 63/38/6 22/12/6
f 26/59/1 31/58/1 30/60/1
f 59/3/26 62/14/26 61/15/26
f 72/21/11 71/22/11 74/23/11
f 78/31/7 77/32/7 79/10/7
f 34/61/27 35/62/27 38/63/27
f 73/46/6 72/21/6 75/40/6
f 57/4/7 59/3/7 58/17/7
f 75/40/28 74/23/28 77/32/28
f 62/14/11 64/28/11 63/38/11
f 57/4/29 56/16/29 66/42/29
f 65/53/1 70/54/1 69/57/1
f 66/52/7 69/57/7 68/58/7
f 4/1/30 27/64/30 65/65/30
f 6/1/6 12/2/6 59/3/6
f 76/66/31 45/32/31 46/30/31
f 40/29/3 35/48/3 73/67/3
f 70/68/32 30/69/32 52/34/32
f 27/70/2 30/60/2 70/71/2
f 56/16/1 58/17/1 11/18/1
f 17/27/1 23/7/1 64/28/1
f 74/23/14 39/29/14 44/30/14
f 68/33/18 79/10/18 50/34/18
f 76/39/9 75/40/9 78/31/9
f 5/19/20 65/41/20 66/42/20
f 80/9/12 69/8/12 70/24/12
f 58/17/21 61/15/21 60/11/21
f 6/1/15 57/4/15 67/47/15
f 71/22/1 34/48/1 39/29/1
f 45/43/1 78/31/1 80/9/1
f 12/2/19 17/27/19 62/14/19
f 77/32/6 44/30/6 50/34/6
f 67/59/6 68/58/6 29/60/6
f 3/4/1 4/1/1 9/3/1
f 4/1/2 5/4/2 10/2/2
f 16/27/3 60/5/3 21/7/3
f 31/33/4 32/8/4 53/10/4
f 17/72/2 13/11/2 23/13/2
f 8/17/5 9/3/5 14/15/5
f 1/19/6 2/16/6 7/18/6
f 6/49/3 1/19/3 12/20/3
f 42/40/7 37/21/7 41/23/7
f 55/45/8 33/24/8 50/26/8
f 15/14/6 16/27/6 20/28/6
f 47/32/9 41/23/9 46/30/9
f 68/33/10 69/8/10 79/10/10
f 54/9/11 48/31/11 53/10/11
f 30/69/12 31/33/12 52/34/12
f 21/35/13 19/73/13 20/74/13
f 63/75/13 64/76/13 23/37/13
f 18/77/13 19/73/13 21/35/13
f 22/36/13 63/75/13 23/37/13
f 23/37/13 18/77/13 21/35/13
f 13/11/1 14/15/1 18/12/1
f 49/43/14 43/39/14 48/31/14
f 2/16/15 1/19/15 25/42/15
f 17/72/16 12/20/16 13/11/16
f 39/78/17 43/39/17 44/44/17
f 54/9/18 32/8/18 55/45/18
f 7/18/19 8/17/19 13/11/19
f 43/39/1 38/46/1 42/40/1
f 27/64/20 4/1/20 26/47/20
f 41/23/6 36/22/6 40/29/6
f 2/16/11 3/4/11 8/17/11
f 50/26/3 44/44/3 55/45/3
f 55/45/6 49/43/6 54/9/6
f 9/3/21 10/2/21 15/14/21
f 48/31/22 42/40/22 47/32/22
f 1/19/23 6/49/23 24/41/23
f 14/15/7 15/14/7 19/38/7
f 39/78/2 34/51/2 43/39/2
f 16/27/24 10/2/24 60/5/24
f 26/47/25 3/4/25 25/42/25
f 52/34/2 46/30/2 51/10/2
f 53/10/1 47/32/1 52/34/1
f 32/57/6 25/52/6 33/54/6
f 33/54/3 24/53/3 29/56/3
f 26/59/11 25/52/11 31/58/11
f 60/11/6 61/15/6 22/12/6
f 27/70/1 26/59/1 30/60/1
f 58/17/26 59/3/26 61/15/26
f 75/40/11 72/21/11 74/23/11
f 80/9/7 78/31/7 79/10/7
f 34/61/27 72/79/27 73/80/27
f 35/62/27 37/81/27 38/63/27
f 34/61/27 71/82/27 72/79/27
f 35/62/27 36/83/27 37/81/27
f 35/62/27 34/61/27 73/80/27
f 76/39/6 73/46/6 75/40/6
f 56/16/7 57/4/7 58/17/7
f 78/31/28 75/40/28 77/32/28
f 61/15/11 62/14/11 63/38/11
f 67/47/29 57/4/29 66/42/29
f 66/52/1 65/53/1 69/57/1
f 67/59/7 66/52/7 68/58/7
f 5/4/30 4/1/30 65/65/30
f 57/4/6 6/1/6 59/3/6
f 40/29/31 76/66/31 46/30/31
f 76/66/3 40/29/3 73/67/3
f 51/10/32 70/68/32 52/34/32
f 65/84/2 27/70/2 70/71/2
f 5/19/1 56/16/1 11/18/1
f 62/14/1 17/27/1 64/28/1
f 77/32/14 74/23/14 44/30/14
f 29/69/18 68/33/18 50/34/18
f 45/43/9 76/39/9 78/31/9
f 56/16/20 5/19/20 66/42/20
f 51/45/12 80/9/12 70/24/12
f 11/18/21 58/17/21 60/11/21
f 28/64/15 6/1/15 67/47/15
f 74/23/1 71/22/1 39/29/1
f 51/45/1 45/43/1 80/9/1
f 59/3/19 12/2/19 62/14/19
f 79/10/6 77/32/6 50/34/6
f 28/70/6 67/59/6 29/60/6
