# Blender v2.72 (sub 0) OBJ File: 'N.blend'
# www.blender.org
o Plane
v -0.500000 0.937500 -0.087500
v 0.500000 0.687500 -0.087500
v -0.500000 -0.687500 -0.087500
v 0.500000 -0.937500 -0.087500
v -0.250000 0.687500 -0.087500
v -0.250000 -0.062500 -0.087500
v 0.250000 -0.687500 -0.087500
v 0.250000 0.062500 -0.087500
v 0.280000 0.134927 -0.087500
v 0.280000 -0.675073 -0.087500
v -0.280000 -0.134926 -0.087500
v -0.280000 0.675074 -0.087500
v 0.470000 -0.865073 -0.087500
v -0.470000 -0.615073 -0.087500
v 0.470000 0.615074 -0.087500
v -0.470000 0.865074 -0.087500
v -0.470000 0.865074 -0.103125
v 0.470000 0.615074 -0.103125
v -0.470000 -0.615073 -0.103125
v 0.470000 -0.865074 -0.103125
v -0.280000 0.675074 -0.103125
v -0.280000 -0.134926 -0.103125
v 0.280000 -0.675073 -0.103125
v 0.280000 0.134927 -0.103125
v -0.500000 0.937500 0.087500
v 0.500000 0.687500 0.087500
v -0.500000 -0.687500 0.087500
v 0.500000 -0.937500 0.087500
v -0.250000 0.687500 0.087500
v -0.250000 -0.062500 0.087500
v 0.250000 -0.687500 0.087500
v 0.250000 0.062500 0.087500
v 0.280000 0.134927 0.087500
v 0.280000 -0.675073 0.087500
v -0.280000 -0.134926 0.087500
v -0.280000 0.675074 0.087500
v 0.470000 -0.865073 0.087500
v -0.470000 -0.615073 0.087500
v 0.470000 0.615074 0.087500
v -0.470000 0.865074 0.087500
v -0.470000 0.865074 0.100000
v 0.470000 0.615074 0.100000
v -0.470000 -0.615073 0.100000
v 0.470000 -0.865073 0.100000
v -0.280000 0.675074 0.100000
v -0.280000 -0.134926 0.100000
v 0.280000 -0.675073 0.100000
v 0.280000 0.134927 0.100000
v -0.250000 0.687500 -0.040625
v -0.250000 0.687500 0.040625
v -0.250000 -0.062500 -0.040625
v -0.250000 -0.062500 0.040625
v 0.500000 0.687500 -0.040625
v 0.500000 0.687500 0.040625
v 0.500000 -0.937500 -0.040625
v 0.500000 -0.937500 0.040625
v 0.250000 -0.687500 -0.040625
v 0.250000 -0.687500 0.040625
v 0.250000 0.062500 -0.040625
v 0.250000 0.062500 0.040625
v -0.500000 -0.687500 -0.040625
v -0.500000 -0.687500 0.040625
v -0.500000 0.937500 -0.040625
v -0.500000 0.937500 0.040625
v -0.265000 0.681287 -0.026626
v -0.265000 0.681287 0.026625
v -0.265000 -0.098713 -0.026626
v -0.265000 -0.098713 0.026625
v 0.484999 0.651287 -0.026626
v 0.484999 0.651287 0.026625
v 0.484999 -0.901287 -0.026626
v 0.484999 -0.901287 0.026625
v 0.265000 -0.681286 -0.026626
v 0.265000 -0.681286 0.026625
v 0.265000 0.098713 -0.026626
v 0.265000 0.098713 0.026625
v -0.484999 -0.651287 -0.026626
v -0.484999 -0.651287 0.026625
v -0.484999 0.901287 -0.026626
v -0.484999 0.901287 0.026625
vt 0.041170 0.946898
vt 0.036179 0.946898
vt 0.036179 0.858518
vt 0.493120 0.588807
vt 0.498111 0.588807
vt 0.498111 0.855229
vt 0.006389 0.858518
vt 0.011381 0.858518
vt 0.011381 0.946898
vt 0.319457 0.588807
vt 0.324448 0.588807
vt 0.324448 0.937675
vt 0.971848 0.493422
vt 0.971848 0.006578
vt 0.976839 0.006578
vt 0.306679 0.937675
vt 0.301687 0.937675
vt 0.301687 0.588807
vt 0.976839 0.993422
vt 0.971848 0.993422
vt 0.971848 0.506578
vt 0.549424 0.588807
vt 0.549424 0.855229
vt 0.545431 0.855229
vt 0.419781 0.860561
vt 0.419781 0.948941
vt 0.415788 0.948941
vt 0.803116 0.006578
vt 0.813528 0.030400
vt 0.813528 0.517244
vt 0.287914 0.588807
vt 0.287914 0.855229
vt 0.277502 0.859316
vt 0.803116 0.554223
vt 0.813528 0.578045
vt 0.813528 0.926912
vt 0.826306 0.517244
vt 0.826306 0.030400
vt 0.836718 0.006578
vt 0.785775 0.926912
vt 0.775363 0.903090
vt 0.775363 0.554223
vt 0.153712 0.852738
vt 0.153712 0.941117
vt 0.143300 0.964940
vt 0.264723 0.588807
vt 0.264723 0.855229
vt 0.254311 0.859316
vt 0.532653 0.855229
vt 0.528659 0.855229
vt 0.528659 0.588807
vt 0.454454 0.860561
vt 0.458447 0.860561
vt 0.458447 0.948941
vt 0.382245 0.937675
vt 0.382245 0.588807
vt 0.386238 0.588807
vt 0.989618 0.006578
vt 0.993611 0.006578
vt 0.993611 0.493422
vt 0.399017 0.937675
vt 0.399017 0.588807
vt 0.403010 0.588807
vt 0.993611 0.506578
vt 0.993611 0.993422
vt 0.989618 0.993422
vt 0.186027 0.835494
vt 0.171053 0.835494
vt 0.171053 0.588807
vt 0.346958 0.859316
vt 0.337227 0.835494
vt 0.337227 0.588807
vt 0.877250 0.926912
vt 0.877250 0.578045
vt 0.886980 0.554223
vt 0.236289 0.960852
vt 0.226558 0.964940
vt 0.226558 0.848650
vt 0.359736 0.588807
vt 0.369467 0.612629
vt 0.369467 0.859316
vt 0.826988 0.926912
vt 0.826988 0.578045
vt 0.836718 0.554223
vt 0.692104 0.554223
vt 0.707079 0.554223
vt 0.707079 0.903090
vt 0.790338 0.541066
vt 0.775363 0.541066
vt 0.775363 0.006578
vt 0.589955 0.718253
vt 0.604930 0.718253
vt 0.604930 0.834542
vt 0.143300 0.588807
vt 0.158274 0.588807
vt 0.158275 0.835494
vt 0.762585 0.554223
vt 0.762585 0.903090
vt 0.747610 0.903090
vt 0.719857 0.006578
vt 0.734832 0.006578
vt 0.734832 0.541066
vt 0.619746 0.705096
vt 0.604772 0.705096
vt 0.604772 0.588807
vt 0.577177 0.834542
vt 0.562203 0.834542
vt 0.562202 0.718253
vt 0.920403 0.556266
vt 0.920403 0.658600
vt 0.913849 0.670512
vt 0.692104 0.006578
vt 0.707079 0.006578
vt 0.707079 0.541066
vt 0.849497 0.903090
vt 0.849497 0.554223
vt 0.864471 0.554223
vt 0.085302 0.588807
vt 0.091856 0.600718
vt 0.091856 0.949586
vt 0.198806 0.588807
vt 0.213780 0.588807
vt 0.213780 0.835494
vt 0.939736 0.529155
vt 0.933182 0.541066
vt 0.933182 0.006578
vt 0.441676 0.588807
vt 0.441676 0.845361
vt 0.435121 0.847405
vt 0.562202 0.588807
vt 0.577177 0.588807
vt 0.577177 0.705096
vt 0.913849 0.797914
vt 0.913849 0.695580
vt 0.920403 0.683668
vt 0.762585 0.541066
vt 0.747610 0.541066
vt 0.747610 0.006578
vt 0.719857 0.554223
vt 0.734832 0.554223
vt 0.734832 0.903090
vt 0.104634 0.588807
vt 0.111189 0.600718
vt 0.111189 0.949586
vt 0.226558 0.588807
vt 0.241533 0.588807
vt 0.241533 0.835494
vt 0.065969 0.949586
vt 0.065969 0.600718
vt 0.072523 0.588807
vt 0.461009 0.588807
vt 0.461009 0.845361
vt 0.454454 0.847405
vt 0.415788 0.588807
vt 0.422343 0.600718
vt 0.422343 0.847405
vt 0.920403 0.541066
vt 0.913849 0.529155
vt 0.913849 0.018489
vt 0.123967 0.949586
vt 0.123967 0.600718
vt 0.130522 0.588807
vt 0.933182 0.556266
vt 0.939736 0.554223
vt 0.939736 0.670512
vt 0.473787 0.588807
vt 0.480342 0.600718
vt 0.480342 0.847405
vt 0.894515 0.006578
vt 0.901070 0.018489
vt 0.901070 0.529155
vt 0.208537 0.964940
vt 0.198806 0.941117
vt 0.198806 0.852738
vt 0.913849 0.815158
vt 0.920403 0.813114
vt 0.920403 0.929403
vt 0.859228 0.517244
vt 0.849497 0.541066
vt 0.849497 0.006578
vt 0.515881 0.855229
vt 0.510890 0.855229
vt 0.510890 0.588807
vt 0.872006 0.030400
vt 0.881737 0.006578
vt 0.881737 0.541066
vt 0.176902 0.852738
vt 0.176902 0.941117
vt 0.166490 0.964940
vt 0.952515 0.018489
vt 0.959069 0.006578
vt 0.959069 0.541066
vt 0.041170 0.858518
vt 0.493120 0.855229
vt 0.006389 0.946898
vt 0.319457 0.937675
vt 0.976839 0.493422
vt 0.306679 0.588807
vt 0.976839 0.506578
vt 0.545431 0.588807
vt 0.415788 0.860561
vt 0.803116 0.541066
vt 0.277502 0.612629
vt 0.803116 0.903090
vt 0.836718 0.541066
vt 0.785775 0.578045
vt 0.143300 0.848650
vt 0.254311 0.612629
vt 0.532653 0.588807
vt 0.454454 0.948941
vt 0.386239 0.937675
vt 0.989618 0.493422
vt 0.403010 0.937675
vt 0.989618 0.506578
vt 0.186027 0.588807
vt 0.346958 0.592894
vt 0.886980 0.903090
vt 0.236289 0.872473
vt 0.359736 0.855229
vt 0.836718 0.903090
vt 0.692104 0.903090
vt 0.790338 0.006578
vt 0.589955 0.834542
vt 0.143300 0.835494
vt 0.747610 0.554223
vt 0.719857 0.541066
vt 0.619746 0.588807
vt 0.577177 0.718253
vt 0.913849 0.554222
vt 0.692104 0.541066
vt 0.864471 0.903090
vt 0.085302 0.937675
vt 0.198806 0.835494
vt 0.939736 0.018489
vt 0.435121 0.600718
vt 0.562203 0.705096
vt 0.920403 0.799958
vt 0.762585 0.006578
vt 0.719857 0.903090
vt 0.104634 0.937675
vt 0.226558 0.835494
vt 0.072523 0.937675
vt 0.454454 0.600718
vt 0.415788 0.845361
vt 0.920403 0.006578
vt 0.130522 0.937675
vt 0.933182 0.658601
vt 0.473787 0.845361
vt 0.894516 0.541066
vt 0.208537 0.848650
vt 0.913849 0.917492
vt 0.859228 0.030400
vt 0.515881 0.588807
vt 0.872006 0.517244
vt 0.166490 0.848650
vt 0.952515 0.529155
vt 0.067086 0.335494
vt 0.306679 0.088807
vt 0.245982 0.246735
vt 0.380154 0.513157
vt 0.319457 0.575651
vt 0.319457 0.088807
vt 0.619746 0.493422
vt 0.380154 0.246735
vt 0.006389 0.006578
vt 0.067086 0.069072
vt 0.306679 0.575651
vt 0.245982 0.513157
vt 0.006389 0.493422
vt 0.559050 0.069072
vt 0.619746 0.006578
vt 0.559050 0.335494
vt 0.053190 0.845361
vt 0.036179 0.845361
vt 0.036179 0.588807
vt 0.649536 0.530401
vt 0.649536 0.879268
vt 0.632525 0.879268
vt 0.679326 0.517244
vt 0.662315 0.517244
vt 0.662315 0.006578
vt 0.579214 0.847699
vt 0.579214 0.950033
vt 0.562203 0.950033
vt 0.023401 0.845361
vt 0.006389 0.845361
vt 0.006389 0.588807
vt 0.679326 0.879268
vt 0.662315 0.879268
vt 0.662315 0.530401
vt 0.632525 0.006578
vt 0.649536 0.006578
vt 0.649536 0.517244
vt 0.609004 0.950033
vt 0.591992 0.950033
vt 0.591992 0.847699
vt 0.053190 0.588807
vt 0.632525 0.530401
vt 0.679326 0.006578
vt 0.562202 0.847699
vt 0.023401 0.588807
vt 0.679326 0.530401
vt 0.632525 0.517244
vt 0.609004 0.847699
vn 0.707100 0.707100 0.000000
vn -1.000000 -0.000000 0.000000
vn -0.707100 -0.707100 0.000000
vn -0.707100 0.707100 0.000000
vn 0.707100 -0.707100 0.000000
vn 1.000000 -0.000000 0.000000
vn 0.461900 0.000000 -0.886900
vn -0.461900 0.000000 -0.886900
vn -0.326600 0.326600 -0.886900
vn 0.326600 -0.326600 -0.886900
vn 0.326600 0.326600 -0.886900
vn 0.384600 -0.000000 0.923100
vn -0.272000 0.272000 0.923100
vn -0.272000 -0.272000 0.923100
vn -0.384600 -0.000000 0.923100
vn 0.272000 -0.272000 0.923100
vn 0.482500 0.482500 -0.731100
vn 0.482500 -0.482500 -0.731100
vn 0.682300 0.000000 -0.731100
vn -0.682300 0.000000 -0.731100
vn -0.482500 -0.482500 -0.731100
vn -0.482500 0.482500 -0.731100
vn -0.482500 0.482500 0.731100
vn 0.682300 -0.000000 0.731100
vn 0.482500 -0.482500 0.731100
vn -0.482500 -0.482500 0.731100
vn -0.682300 -0.000000 0.731100
vn 0.272000 0.272000 0.923100
vn 0.482500 0.482500 0.731100
vn -0.326600 -0.326600 -0.886900
vn 0.000000 0.000000 -1.000000
vn -0.000000 -0.000000 1.000000
s off
f 23/1/1 10/2/1 13/3/1
f 22/4/2 11/5/2 12/6/2
f 21/7/3 12/8/3 16/9/3
f 19/10/4 14/11/4 9/12/4
f 18/13/2 20/14/2 13/15/2
f 18/16/5 15/17/5 11/18/5
f 17/19/6 16/20/6 14/21/6
f 34/22/6 33/23/6 48/24/6
f 37/25/1 34/26/1 47/27/1
f 4/28/7 20/29/7 18/30/7
f 24/31/8 23/32/8 7/33/8
f 2/34/9 18/35/9 22/36/9
f 17/37/8 19/38/8 3/39/8
f 3/40/10 19/41/10 24/42/10
f 21/43/11 17/44/11 1/45/11
f 22/46/7 21/47/7 5/48/7
f 45/49/2 36/50/2 35/51/2
f 41/52/3 40/53/3 36/54/3
f 33/55/4 38/56/4 43/57/4
f 37/58/2 44/59/2 42/60/2
f 35/61/5 39/62/5 42/63/5
f 38/64/6 40/65/6 41/66/6
f 50/67/6 29/68/6 30/69/6
f 46/70/12 30/71/12 29/72/12
f 26/73/13 30/74/13 46/75/13
f 47/76/14 31/77/14 28/78/14
f 48/79/15 32/80/15 31/81/15
f 27/82/16 32/83/16 48/84/16
f 52/85/4 30/86/4 26/87/4
f 54/88/6 26/89/6 28/90/6
f 56/91/3 28/92/3 31/93/3
f 58/94/2 31/95/2 32/96/2
f 62/97/5 60/98/5 32/99/5
f 62/100/2 27/101/2 25/102/2
f 64/103/1 25/104/1 29/105/1
f 1/106/1 63/107/1 49/108/1
f 66/109/17 80/110/17 64/111/17
f 3/112/2 61/113/2 63/114/2
f 3/115/5 8/116/5 59/117/5
f 62/118/18 78/119/18 76/120/18
f 7/121/2 57/122/2 59/123/2
f 70/124/19 54/125/19 56/126/19
f 76/127/20 74/128/20 58/129/20
f 4/130/3 55/131/3 57/132/3
f 74/133/21 72/134/21 56/135/21
f 2/136/6 53/137/6 55/138/6
f 6/139/4 51/140/4 53/141/4
f 54/142/22 70/143/22 68/144/22
f 5/145/6 49/146/6 51/147/6
f 53/148/23 51/149/23 67/150/23
f 68/151/19 66/152/19 50/153/19
f 67/154/24 51/155/24 49/156/24
f 53/157/24 69/158/24 71/159/24
f 61/160/25 59/161/25 75/162/25
f 73/163/26 57/164/26 55/165/26
f 75/166/27 59/167/27 57/168/27
f 61/169/27 77/170/27 79/171/27
f 25/172/28 41/173/28 45/174/28
f 65/175/29 49/176/29 63/177/29
f 41/178/15 25/179/15 27/180/15
f 24/181/6 9/182/6 10/183/6
f 44/184/12 28/185/12 26/186/12
f 23/187/30 20/188/30 4/189/30
f 78/190/20 62/191/20 64/192/20
f 20/193/1 23/1/1 13/3/1
f 21/194/2 22/4/2 12/6/2
f 17/195/3 21/7/3 16/9/3
f 24/196/4 19/10/4 9/12/4
f 15/197/2 18/13/2 13/15/2
f 22/198/5 18/16/5 11/18/5
f 19/199/6 17/19/6 14/21/6
f 47/200/6 34/22/6 48/24/6
f 44/201/1 37/25/1 47/27/1
f 2/202/7 4/28/7 18/30/7
f 8/203/8 24/31/8 7/33/8
f 6/204/9 2/34/9 22/36/9
f 1/205/8 17/37/8 3/39/8
f 8/206/10 3/40/10 24/42/10
f 5/207/11 21/43/11 1/45/11
f 6/208/7 22/46/7 5/48/7
f 46/209/2 45/49/2 35/51/2
f 45/210/3 41/52/3 36/54/3
f 48/211/4 33/55/4 43/57/4
f 39/212/2 37/58/2 42/60/2
f 46/213/5 35/61/5 42/63/5
f 43/214/6 38/64/6 41/66/6
f 52/215/6 50/67/6 30/69/6
f 45/216/12 46/70/12 29/72/12
f 42/217/13 26/73/13 46/75/13
f 44/218/14 47/76/14 28/78/14
f 47/219/15 48/79/15 31/81/15
f 43/220/16 27/82/16 48/84/16
f 54/221/4 52/85/4 26/87/4
f 56/222/6 54/88/6 28/90/6
f 58/223/3 56/91/3 31/93/3
f 60/224/2 58/94/2 32/96/2
f 27/225/5 62/97/5 32/99/5
f 64/226/2 62/100/2 25/102/2
f 50/227/1 64/103/1 29/105/1
f 5/228/1 1/106/1 49/108/1
f 50/229/17 66/109/17 64/111/17
f 1/230/2 3/112/2 63/114/2
f 61/231/5 3/115/5 59/117/5
f 60/232/18 62/118/18 76/120/18
f 8/233/2 7/121/2 59/123/2
f 72/234/19 70/124/19 56/126/19
f 60/235/20 76/127/20 58/129/20
f 7/236/3 4/130/3 57/132/3
f 58/237/21 74/133/21 56/135/21
f 4/238/6 2/136/6 55/138/6
f 2/239/4 6/139/4 53/141/4
f 52/240/22 54/142/22 68/144/22
f 6/241/6 5/145/6 51/147/6
f 69/242/23 53/148/23 67/150/23
f 52/243/19 68/151/19 50/153/19
f 65/244/24 67/154/24 49/156/24
f 55/245/24 53/157/24 71/159/24
f 77/246/25 61/160/25 75/162/25
f 71/247/26 73/163/26 55/165/26
f 73/248/27 75/166/27 57/168/27
f 63/249/27 61/169/27 79/171/27
f 29/250/28 25/172/28 45/174/28
f 79/251/29 65/175/29 63/177/29
f 43/252/15 41/178/15 27/180/15
f 23/253/6 24/181/6 10/183/6
f 42/254/12 44/184/12 26/186/12
f 7/255/30 23/187/30 4/189/30
f 80/256/20 78/190/20 64/192/20
f 11/257/31 15/258/31 9/259/31
f 36/260/32 40/261/32 38/262/32
f 39/263/32 35/264/32 38/262/32
f 16/265/31 12/266/31 11/257/31
f 13/267/31 10/268/31 9/259/31
f 14/269/31 16/265/31 11/257/31
f 15/258/31 13/267/31 9/259/31
f 9/259/31 14/269/31 11/257/31
f 34/270/32 37/271/32 39/263/32
f 35/264/32 36/260/32 38/262/32
f 33/272/32 39/263/32 38/262/32
f 33/272/32 34/270/32 39/263/32
f 65/273/6 66/274/6 68/275/6
f 69/276/4 67/277/4 68/278/4
f 69/279/6 70/280/6 72/281/6
f 73/282/3 71/283/3 72/284/3
f 73/285/2 74/286/2 76/287/2
f 75/288/5 76/289/5 78/290/5
f 77/291/2 78/292/2 80/293/2
f 79/294/1 80/295/1 66/296/1
f 67/297/6 65/273/6 68/275/6
f 70/298/4 69/276/4 68/278/4
f 71/299/6 69/279/6 72/281/6
f 74/300/3 73/282/3 72/284/3
f 75/301/2 73/285/2 76/287/2
f 77/302/5 75/288/5 78/290/5
f 79/303/2 77/291/2 80/293/2
f 65/304/1 79/294/1 66/296/1
