# Blender v2.72 (sub 0) OBJ File: 'teleport.blend'
# www.blender.org
mtllib teleport.mtl
o Circle
v 0.250000 0.000000 -2.000000
v 0.250000 1.732051 -1.000000
v 0.250000 1.732051 1.000000
v 0.250000 -0.000000 2.000000
v 0.250000 -1.732051 1.000000
v 0.250000 -1.732051 -1.000000
v 0.250000 0.000000 -1.750000
v 0.250000 1.515545 -0.875000
v 0.250000 1.515544 0.875000
v 0.250000 -0.000000 1.750000
v 0.250000 -1.515545 0.875000
v 0.250000 -1.515545 -0.875000
v -0.000000 -0.000000 -2.000000
v -0.000000 1.732051 -1.000000
v -0.000000 1.732051 1.000000
v 0.000000 -0.000000 2.000000
v 0.000000 -1.732051 1.000000
v 0.000000 -1.732051 -1.000000
v -0.000000 -0.000000 -1.750000
v -0.000000 1.515545 -0.875000
v -0.000000 1.515544 0.875000
v 0.000000 -0.000000 1.750000
v 0.000000 -1.515545 0.875000
v 0.000000 -1.515545 -0.875000
v 0.083334 -1.732051 -1.000000
v 0.166667 -1.732051 -1.000000
v 0.166666 0.000000 -2.000000
v 0.083333 -0.000000 -2.000000
v 0.083334 -1.732051 1.000000
v 0.166667 -1.732051 1.000000
v 0.083334 -0.000000 2.000000
v 0.166667 -0.000000 2.000000
v 0.083333 1.732051 1.000000
v 0.166666 1.732051 1.000000
v 0.083333 1.732051 -1.000000
v 0.166666 1.732051 -1.000000
v 0.083334 -1.832051 -1.057735
v 0.166667 -1.832051 -1.057735
v 0.166666 0.000000 -2.115470
v 0.083333 -0.000000 -2.115470
v 0.083334 -1.832051 1.057735
v 0.166667 -1.832051 1.057735
v 0.083334 -0.000000 2.115470
v 0.166667 -0.000000 2.115470
v 0.083333 1.832051 1.057735
v 0.166666 1.832051 1.057735
v 0.083333 1.832051 -1.057735
v 0.166666 1.832051 -1.057735
v 0.083333 -0.000000 -1.750000
v 0.166666 0.000000 -1.750000
v 0.166667 -1.515545 -0.875000
v 0.083334 -1.515545 -0.875000
v 0.166667 -1.515545 0.875000
v 0.083334 -1.515545 0.875000
v 0.166667 -0.000000 1.750000
v 0.083334 -0.000000 1.750000
v 0.166666 1.515544 0.875000
v 0.083333 1.515544 0.875000
v 0.166666 1.515545 -0.875000
v 0.083333 1.515545 -0.875000
v 0.083333 -0.000000 -1.625000
v 0.166666 0.000000 -1.625000
v 0.166667 -1.407292 -0.812502
v 0.083334 -1.407292 -0.812502
v 0.166667 -1.407292 0.812502
v 0.083334 -1.407292 0.812502
v 0.166667 -0.000000 1.625000
v 0.083334 -0.000000 1.625000
v 0.166667 1.407291 0.812502
v 0.083333 1.407291 0.812502
v 0.166666 1.407292 -0.812502
v 0.083333 1.407292 -0.812502
vt 0.385883 0.151402
vt 0.007380 0.151402
vt 0.031036 0.110427
vt 0.362227 0.110428
vt 0.007380 0.546808
vt 0.385884 0.546808
vt 0.362227 0.587782
vt 0.031036 0.587782
vt 0.400643 0.023151
vt 0.779149 0.023150
vt 0.755492 0.064125
vt 0.424300 0.064125
vt 0.007380 0.459532
vt 0.385884 0.459532
vt 0.362227 0.500506
vt 0.031036 0.500506
vt 0.779146 0.151402
vt 0.400643 0.151402
vt 0.424299 0.110427
vt 0.755490 0.110428
vt 0.385886 0.762334
vt 0.007380 0.762335
vt 0.031036 0.721361
vt 0.362229 0.721360
vt 0.385883 0.023151
vt 0.362227 0.064125
vt 0.031036 0.064126
vt 0.007380 0.023152
vt 0.007380 0.675059
vt 0.031036 0.634084
vt 0.362227 0.634085
vt 0.385884 0.675059
vt 0.007380 0.413230
vt 0.031037 0.372256
vt 0.362230 0.372257
vt 0.385886 0.413231
vt 0.007380 0.325954
vt 0.031036 0.284980
vt 0.362228 0.284981
vt 0.385884 0.325955
vt 0.779147 0.284980
vt 0.755490 0.325954
vt 0.424300 0.325954
vt 0.400644 0.284980
vt 0.385885 0.197704
vt 0.362229 0.238678
vt 0.031036 0.238677
vt 0.007380 0.197703
vt 0.031036 0.079897
vt 0.362227 0.079896
vt 0.362227 0.618314
vt 0.031036 0.618313
vt 0.362230 0.356486
vt 0.031037 0.356485
vt 0.362228 0.269210
vt 0.031036 0.269209
vt 0.424300 0.341725
vt 0.755490 0.341725
vt 0.031036 0.254449
vt 0.362228 0.254449
vt 0.385883 0.007380
vt 0.007380 0.007380
vt 0.007380 0.690830
vt 0.385884 0.690830
vt 0.007380 0.429001
vt 0.385886 0.429001
vt 0.007380 0.341725
vt 0.385884 0.341725
vt 0.779147 0.269209
vt 0.400644 0.269209
vt 0.385885 0.181933
vt 0.007380 0.181933
vt 0.385883 0.167173
vt 0.007380 0.167173
vt 0.007380 0.531037
vt 0.385884 0.531037
vt 0.400643 0.007380
vt 0.779149 0.007380
vt 0.007380 0.443761
vt 0.385884 0.443761
vt 0.779146 0.167173
vt 0.400643 0.167173
vt 0.385886 0.778105
vt 0.007380 0.778105
vt 0.031036 0.094656
vt 0.362227 0.094657
vt 0.362227 0.603553
vt 0.031036 0.603554
vt 0.755492 0.079896
vt 0.424300 0.079896
vt 0.362227 0.516277
vt 0.031036 0.516277
vt 0.424299 0.094656
vt 0.755490 0.094656
vt 0.031036 0.705589
vt 0.362229 0.705589
vt 0.790076 0.634275
vt 0.411570 0.634276
vt 0.400643 0.615350
vt 0.801003 0.615350
vt 0.411570 0.580654
vt 0.790076 0.580655
vt 0.801003 0.599580
vt 0.400643 0.599579
vt 0.411572 0.705589
vt 0.790074 0.705590
vt 0.801000 0.724515
vt 0.400645 0.724515
vt 0.790074 0.759211
vt 0.411572 0.759211
vt 0.400645 0.740286
vt 0.801000 0.740286
vt 0.411572 0.181933
vt 0.790077 0.181934
vt 0.801003 0.200859
vt 0.400645 0.200859
vt 0.790077 0.235555
vt 0.411571 0.235554
vt 0.400645 0.216628
vt 0.801003 0.216630
vt 0.801000 0.531197
vt 0.801000 0.546968
vt 0.400643 0.546968
vt 0.400644 0.531198
vt 0.400646 0.391182
vt 0.400646 0.375411
vt 0.800998 0.375410
vt 0.800998 0.391182
vt 0.400643 0.478453
vt 0.400649 0.462682
vt 0.801006 0.462820
vt 0.801001 0.478592
vt 0.411582 0.443761
vt 0.790087 0.443891
vt 0.790068 0.497512
vt 0.411563 0.497382
vt 0.411572 0.356486
vt 0.790071 0.356485
vt 0.790071 0.410107
vt 0.411572 0.410107
vt 0.790073 0.565894
vt 0.411570 0.565893
vt 0.411570 0.512272
vt 0.790074 0.512272
vt 0.007380 0.935875
vt 0.338571 0.935875
vt 0.326743 0.956362
vt 0.019208 0.956362
vt 0.338571 0.992620
vt 0.007380 0.992620
vt 0.019208 0.972133
vt 0.326743 0.972133
vt 0.731836 0.973726
vt 0.400645 0.973726
vt 0.412473 0.953239
vt 0.720009 0.953239
vt 0.400645 0.916981
vt 0.731837 0.916981
vt 0.720009 0.937468
vt 0.412473 0.937468
vt 0.338570 0.921115
vt 0.007380 0.921115
vt 0.019208 0.900628
vt 0.326742 0.900628
vt 0.007380 0.864370
vt 0.338570 0.864370
vt 0.326742 0.884857
vt 0.019208 0.884857
vt 0.019208 0.829123
vt 0.019208 0.813352
vt 0.326743 0.813352
vt 0.326743 0.829123
vt 0.720008 0.865963
vt 0.720008 0.881734
vt 0.412473 0.881734
vt 0.412473 0.865963
vt 0.720009 0.794459
vt 0.720009 0.810230
vt 0.412473 0.810229
vt 0.412474 0.794457
vt 0.731837 0.830716
vt 0.400645 0.830716
vt 0.400646 0.773971
vt 0.731838 0.773972
vt 0.731836 0.902221
vt 0.400645 0.902221
vt 0.400645 0.845476
vt 0.731836 0.845476
vt 0.007380 0.792865
vt 0.338572 0.792866
vt 0.338572 0.849610
vt 0.007380 0.849610
vn 1.000000 0.000000 -0.000000
vn -1.000000 -0.000000 0.000000
vn 0.000000 0.500000 0.866000
vn 0.000000 1.000000 0.000000
vn -0.000000 0.500000 -0.866000
vn -0.000000 -0.500000 -0.866000
vn -0.000000 -1.000000 0.000000
vn 0.000000 -0.500000 0.866000
usemtl inner
s off
f 6/1/1 1/2/1 7/3/1 12/4/1
f 5/5/1 6/6/1 12/7/1 11/8/1
f 4/9/1 5/10/1 11/11/1 10/12/1
f 3/13/1 4/14/1 10/15/1 9/16/1
f 2/17/1 3/18/1 9/19/1 8/20/1
f 1/21/1 2/22/1 8/23/1 7/24/1
f 18/25/2 24/26/2 19/27/2 13/28/2
f 17/29/2 23/30/2 24/31/2 18/32/2
f 16/33/2 22/34/2 23/35/2 17/36/2
f 15/37/2 21/38/2 22/39/2 16/40/2
f 14/41/2 20/42/2 21/43/2 15/44/2
f 13/45/2 19/46/2 20/47/2 14/48/2
f 49/49/3 19/27/3 24/26/3 52/50/3
f 52/51/4 24/31/4 23/30/4 54/52/4
f 54/53/5 23/35/5 22/34/5 56/54/5
f 56/55/6 22/39/6 21/38/6 58/56/6
f 58/57/7 21/43/7 20/42/7 60/58/7
f 60/59/8 20/47/8 19/46/8 49/60/8
f 25/61/6 18/25/6 13/28/6 28/62/6
f 29/63/7 17/29/7 18/32/7 25/64/7
f 31/65/8 16/33/8 17/36/8 29/66/8
f 33/67/3 15/37/3 16/40/3 31/68/3
f 35/69/4 14/41/4 15/44/4 33/70/4
f 28/71/5 13/45/5 14/48/5 35/72/5
f 6/1/6 26/73/6 27/74/6 1/2/6
f 5/5/7 30/75/7 26/76/7 6/6/7
f 4/9/8 32/77/8 30/78/8 5/10/8
f 3/13/3 34/79/3 32/80/3 4/14/3
f 2/17/4 36/81/4 34/82/4 3/18/4
f 1/21/5 27/83/5 36/84/5 2/22/5
f 7/3/3 50/85/3 51/86/3 12/4/3
f 12/7/4 51/87/4 53/88/4 11/8/4
f 11/11/5 53/89/5 55/90/5 10/12/5
f 10/15/6 55/91/6 57/92/6 9/16/6
f 9/19/7 57/93/7 59/94/7 8/20/7
f 8/23/8 59/95/8 50/96/8 7/24/8
usemtl outer
f 32/97/1 34/98/1 46/99/1 44/100/1
f 33/101/2 31/102/2 43/103/2 45/104/2
f 34/105/1 36/106/1 48/107/1 46/108/1
f 35/109/2 33/110/2 45/111/2 47/112/2
f 36/113/1 27/114/1 39/115/1 48/116/1
f 28/117/2 35/118/2 47/119/2 40/120/2
f 38/121/6 37/122/6 40/123/6 39/124/6
f 42/125/7 41/126/7 37/127/7 38/128/7
f 44/129/8 43/130/8 41/131/8 42/132/8
f 46/99/3 45/104/3 43/103/3 44/100/3
f 48/107/4 47/112/4 45/111/4 46/108/4
f 39/115/5 40/120/5 47/119/5 48/116/5
f 31/133/2 29/134/2 41/131/2 43/130/2
f 30/135/1 32/136/1 44/129/1 42/132/1
f 29/137/2 25/138/2 37/127/2 41/126/2
f 26/139/1 30/140/1 42/125/1 38/128/1
f 25/141/2 28/142/2 40/123/2 37/122/2
f 27/143/1 26/144/1 38/121/1 39/124/1
f 57/145/1 55/146/1 67/147/1 69/148/1
f 56/149/2 58/150/2 70/151/2 68/152/2
f 59/153/1 57/154/1 69/155/1 71/156/1
f 58/157/2 60/158/2 72/159/2 70/160/2
f 50/161/1 59/162/1 71/163/1 62/164/1
f 60/165/2 49/166/2 61/167/2 72/168/2
f 62/169/3 61/170/3 64/171/3 63/172/3
f 63/173/4 64/174/4 66/175/4 65/176/4
f 65/177/5 66/178/5 68/179/5 67/180/5
f 67/147/6 68/152/6 70/151/6 69/148/6
f 69/155/7 70/160/7 72/159/7 71/156/7
f 71/163/8 72/168/8 61/167/8 62/164/8
f 54/181/2 56/182/2 68/179/2 66/178/2
f 55/183/1 53/184/1 65/177/1 67/180/1
f 52/185/2 54/186/2 66/175/2 64/174/2
f 53/187/1 51/188/1 63/173/1 65/176/1
f 49/189/2 52/190/2 64/171/2 61/170/2
f 51/191/1 50/192/1 62/169/1 63/172/1
