<?xml version="1.0" standalone="no"?><!DOCTYPE svg PUBLIC "-//W3C//DTD SVG 1.1//EN" "http://www.w3.org/Graphics/SVG/1.1/DTD/svg11.dtd"><svg xmlns="http://www.w3.org/2000/svg" viewBox="0 0 650 400" version="1.1"><clipPath id="box"><rect x="0" y="0" width="650" height="400" style="fill:none;stroke:none;" /></clipPath><g clip-path="url(#box)"><rect x="0.00" y="0.00" width="650.00" height="400.00" style="fill:#FFFFFF;stroke:none;" /><path d="M0.00 391.00 L650.00 391.00 M0.00 341.00 L650.00 341.00 M0.00 291.00 L650.00 291.00 M0.00 241.00 L650.00 241.00 M0.00 191.00 L650.00 191.00 M0.00 141.00 L650.00 141.00 M0.00 91.00 L650.00 91.00 M0.00 41.00 L650.00 41.00 M33.00 0.00 L33.00 400.00 M83.00 0.00 L83.00 400.00 M134.00 0.00 L134.00 400.00 M184.00 0.00 L184.00 400.00 M234.00 0.00 L234.00 400.00 M284.00 0.00 L284.00 400.00 M334.00 0.00 L334.00 400.00 M383.00 0.00 L383.00 400.00 M434.00 0.00 L434.00 400.00 M483.00 0.00 L483.00 400.00 M534.00 0.00 L534.00 400.00 M584.00 0.00 L584.00 400.00 M634.00 0.00 L634.00 400.00 " style="fill:none;stroke:#D0D0D0;stroke-width:1;" /><path d="M84.00 0.00 L84.00 400.00 " style="fill:none;stroke:#000000;stroke-width:1;" /><path d="M77.50 441.00 L90.50 441.00 M77.50 391.00 L90.50 391.00 M77.50 341.00 L90.50 341.00 M77.50 291.00 L90.50 291.00 M77.50 241.00 L90.50 241.00 M77.50 191.00 L90.50 191.00 M77.50 141.00 L90.50 141.00 M77.50 91.00 L90.50 91.00 M77.50 41.00 L90.50 41.00 " style="fill:none;stroke:#000000;stroke-width:1;" /><path d="M0.00 191.00 L650.00 191.00 " style="fill:none;stroke:#000000;stroke-width:1;" /><path d="M-16.00 184.50 L-16.00 197.50 M34.00 184.50 L34.00 197.50 M84.00 184.50 L84.00 197.50 M134.00 184.50 L134.00 197.50 M184.00 184.50 L184.00 197.50 M234.00 184.50 L234.00 197.50 M284.00 184.50 L284.00 197.50 M334.00 184.50 L334.00 197.50 M384.00 184.50 L384.00 197.50 M434.00 184.50 L434.00 197.50 M484.00 184.50 L484.00 197.50 M534.00 184.50 L534.00 197.50 M584.00 184.50 L584.00 197.50 M634.00 184.50 L634.00 197.50 " style="fill:none;stroke:#000000;stroke-width:1;" /><text x="92.12499999999999" y="393.5" text-anchor="start" style="font:10px Droid Sans,Trebuchet MS,Arial,Helvetica,sans-serif;stroke:none;fill:#000000">-4</text><text x="92.12499999999999" y="343.5" text-anchor="start" style="font:10px Droid Sans,Trebuchet MS,Arial,Helvetica,sans-serif;stroke:none;fill:#000000">-3</text><text x="92.12499999999999" y="293.5" text-anchor="start" style="font:10px Droid Sans,Trebuchet MS,Arial,Helvetica,sans-serif;stroke:none;fill:#000000">-2</text><text x="92.12499999999999" y="243.5" text-anchor="start" style="font:10px Droid Sans,Trebuchet MS,Arial,Helvetica,sans-serif;stroke:none;fill:#000000">-1</text><text x="92.12499999999999" y="193.5" text-anchor="start" style="font:10px Droid Sans,Trebuchet MS,Arial,Helvetica,sans-serif;stroke:none;fill:#000000">0</text><text x="92.12499999999999" y="143.5" text-anchor="start" style="font:10px Droid Sans,Trebuchet MS,Arial,Helvetica,sans-serif;stroke:none;fill:#000000">1</text><text x="92.12499999999999" y="93.49999999999999" text-anchor="start" style="font:10px Droid Sans,Trebuchet MS,Arial,Helvetica,sans-serif;stroke:none;fill:#000000">2</text><text x="92.12499999999999" y="43.49999999999999" text-anchor="start" style="font:10px Droid Sans,Trebuchet MS,Arial,Helvetica,sans-serif;stroke:none;fill:#000000">3</text><text x="33.999999999999986" y="207.125" text-anchor="middle" style="font:10px Droid Sans,Trebuchet MS,Arial,Helvetica,sans-serif;stroke:none;fill:#000000">-1</text><text x="83.99999999999999" y="207.125" text-anchor="middle" style="font:10px Droid Sans,Trebuchet MS,Arial,Helvetica,sans-serif;stroke:none;fill:#000000">0</text><text x="134" y="207.125" text-anchor="middle" style="font:10px Droid Sans,Trebuchet MS,Arial,Helvetica,sans-serif;stroke:none;fill:#000000">1</text><text x="184" y="207.125" text-anchor="middle" style="font:10px Droid Sans,Trebuchet MS,Arial,Helvetica,sans-serif;stroke:none;fill:#000000">2</text><text x="234" y="207.125" text-anchor="middle" style="font:10px Droid Sans,Trebuchet MS,Arial,Helvetica,sans-serif;stroke:none;fill:#000000">3</text><text x="284" y="207.125" text-anchor="middle" style="font:10px Droid Sans,Trebuchet MS,Arial,Helvetica,sans-serif;stroke:none;fill:#000000">4</text><text x="334" y="207.125" text-anchor="middle" style="font:10px Droid Sans,Trebuchet MS,Arial,Helvetica,sans-serif;stroke:none;fill:#000000">5</text><text x="383.99999999999994" y="207.125" text-anchor="middle" style="font:10px Droid Sans,Trebuchet MS,Arial,Helvetica,sans-serif;stroke:none;fill:#000000">6</text><text x="434" y="207.125" text-anchor="middle" style="font:10px Droid Sans,Trebuchet MS,Arial,Helvetica,sans-serif;stroke:none;fill:#000000">7</text><text x="483.99999999999994" y="207.125" text-anchor="middle" style="font:10px Droid Sans,Trebuchet MS,Arial,Helvetica,sans-serif;stroke:none;fill:#000000">8</text><text x="534" y="207.125" text-anchor="middle" style="font:10px Droid Sans,Trebuchet MS,Arial,Helvetica,sans-serif;stroke:none;fill:#000000">9</text><text x="584" y="207.125" text-anchor="middle" style="font:10px Droid Sans,Trebuchet MS,Arial,Helvetica,sans-serif;stroke:none;fill:#000000">10</text><text x="634" y="207.125" text-anchor="middle" style="font:10px Droid Sans,Trebuchet MS,Arial,Helvetica,sans-serif;stroke:none;fill:#000000">11</text><path d="M-10.00 200.00 L-0.25 215.67 L0.75 215.78 L2.75 215.93 L4.75 215.99 L6.75 215.98 L8.75 215.89 L10.75 215.72 L12.75 215.47 L14.75 215.14 L16.75 214.73 L18.75 214.24 L20.75 213.68 L22.75 213.04 L24.75 212.32 L26.75 211.54 L28.75 210.67 L30.75 209.74 L32.75 208.74 L34.74 207.67 L36.61 206.61 L38.37 205.56 L40.04 204.51 L41.64 203.47 L43.18 202.43 L44.67 201.40 L46.10 200.37 L47.50 199.34 L48.86 198.32 L50.18 197.30 L51.48 196.27 L52.75 195.26 L53.99 194.24 L55.22 193.22 L56.42 192.20 L57.60 191.19 L58.77 190.18 L59.92 189.16 L61.05 188.15 L62.17 187.14 L63.28 186.13 L64.38 185.12 L65.47 184.11 L66.55 183.10 L67.61 182.09 L68.67 181.09 L69.73 180.08 L70.77 179.07 L71.81 178.07 L72.85 177.06 L73.87 176.06 L74.90 175.05 L75.91 174.05 L76.93 173.05 L77.94 172.04 L78.95 171.04 L79.96 170.04 L80.96 169.04 L81.96 168.04 L82.96 167.04 L83.96 166.04 L84.97 165.04 L85.97 164.04 L86.97 163.04 L87.97 162.04 L88.97 161.04 L89.97 160.04 L90.98 159.04 L91.99 158.05 L93.00 157.05 L94.01 156.05 L95.03 155.06 L96.05 154.06 L97.08 153.07 L98.11 152.07 L99.15 151.08 L100.20 150.08 L101.25 149.09 L102.31 148.10 L103.37 147.11 L104.45 146.12 L105.53 145.13 L106.63 144.14 L107.74 143.15 L108.85 142.16 L109.98 141.17 L111.13 140.18 L112.29 139.20 L113.46 138.21 L114.66 137.23 L115.87 136.24 L117.10 135.26 L118.36 134.28 L119.64 133.30 L120.95 132.32 L122.29 131.35 L123.66 130.37 L125.06 129.40 L126.51 128.43 L128.00 127.46 L129.54 126.50 L131.14 125.54 L132.81 124.58 L134.55 123.63 L136.38 122.69 L138.32 121.75 L140.32 120.86 L142.32 120.03 L144.32 119.28 L146.32 118.61 L148.32 118.01 L150.32 117.49 L152.32 117.04 L154.32 116.67 L156.32 116.39 L158.32 116.18 L160.32 116.05 L162.32 116.00 L164.32 116.03 L166.32 116.14 L168.32 116.33 L170.32 116.60 L172.32 116.95 L174.32 117.38 L176.32 117.89 L178.32 118.47 L180.32 119.13 L182.32 119.86 L184.32 120.67 L186.32 121.55 L188.32 122.50 L190.32 123.52 L192.28 124.59 L194.12 125.64 L195.86 126.70 L197.51 127.74 L199.10 128.78 L200.62 129.81 L202.09 130.85 L203.52 131.87 L204.91 132.90 L206.26 133.93 L207.58 134.95 L208.87 135.97 L210.13 136.99 L211.37 138.01 L212.59 139.02 L213.78 140.04 L214.96 141.05 L216.12 142.07 L217.27 143.08 L218.40 144.09 L219.52 145.10 L220.63 146.11 L221.72 147.12 L222.81 148.13 L223.88 149.14 L224.95 150.15 L226.01 151.15 L227.06 152.16 L228.10 153.17 L229.14 154.17 L230.17 155.18 L231.20 156.18 L232.22 157.19 L233.24 158.19 L234.25 159.19 L235.26 160.20 L236.27 161.20 L237.28 162.20 L238.28 163.20 L239.28 164.20 L240.28 165.20 L241.28 166.20 L242.28 167.20 L243.28 168.20 L244.28 169.20 L245.29 170.20 L246.29 171.20 L247.29 172.20 L248.30 173.20 L249.31 174.19 L250.32 175.19 L251.34 176.19 L252.36 177.18 L253.38 178.18 L254.41 179.17 L255.44 180.17 L256.48 181.16 L257.53 182.15 L258.58 183.15 L259.64 184.14 L260.71 185.13 L261.79 186.12 L262.87 187.11 L263.97 188.10 L265.08 189.09 L266.20 190.08 L267.34 191.07 L268.48 192.05 L269.65 193.04 L270.83 194.02 L272.03 195.01 L273.24 195.99 L274.48 196.97 L275.74 197.95 L277.03 198.93 L278.35 199.91 L279.69 200.89 L281.07 201.86 L282.48 202.83 L283.94 203.80 L285.44 204.77 L287.00 205.73 L288.61 206.69 L290.29 207.64 L292.06 208.59 L293.91 209.54 L295.88 210.47 L297.88 211.35 L299.88 212.16 L301.88 212.89 L303.88 213.54 L305.88 214.12 L307.88 214.63 L309.88 215.06 L311.88 215.40 L313.88 215.67 L315.88 215.86 L317.88 215.97 L319.88 216.00 L321.88 215.95 L323.88 215.82 L325.88 215.61 L327.88 215.32 L329.88 214.95 L331.88 214.50 L333.88 213.98 L335.88 213.38 L337.88 212.70 L339.88 211.95 L341.88 211.12 L343.88 210.23 L345.88 209.26 L347.88 208.22 L349.81 207.16 L351.62 206.10 L353.34 205.05 L354.98 204.01 L356.55 202.97 L358.06 201.94 L359.52 200.91 L360.94 199.88 L362.31 198.85 L363.66 197.83 L364.97 196.81 L366.25 195.79 L367.51 194.77 L368.74 193.75 L369.95 192.73 L371.15 191.72 L372.32 190.70 L373.48 189.69 L374.62 188.68 L375.75 187.67 L376.87 186.65 L377.97 185.64 L379.06 184.63 L380.15 183.63 L381.22 182.62 L382.28 181.61 L383.34 180.60 L384.39 179.60 L385.43 178.59 L386.47 177.59 L387.50 176.58 L388.52 175.58 L389.54 174.57 L390.56 173.57 L391.57 172.57 L392.58 171.56 L393.59 170.56 L394.60 169.56 L395.60 168.56 L396.60 167.56 L397.60 166.56 L398.60 165.56 L399.60 164.56 L400.60 163.56 L401.60 162.56 L402.61 161.56 L403.61 160.56 L404.61 159.56 L405.62 158.57 L406.63 157.57 L407.64 156.57 L408.66 155.58 L409.68 154.58 L410.71 153.58 L411.74 152.59 L412.77 151.60 L413.81 150.60 L414.86 149.61 L415.91 148.62 L416.98 147.62 L418.05 146.63 L419.13 145.64 L420.22 144.65 L421.32 143.66 L422.43 142.67 L423.55 141.68 L424.69 140.70 L425.84 139.71 L427.01 138.72 L428.19 137.74 L429.40 136.76 L430.62 135.77 L431.86 134.79 L433.13 133.81 L434.42 132.83 L435.75 131.86 L437.10 130.88 L438.48 129.91 L439.91 128.94 L441.38 127.97 L442.89 127.00 L444.46 126.04 L446.09 125.08 L447.79 124.13 L449.57 123.18 L451.46 122.24 L453.45 121.31 L455.45 120.45 L457.45 119.66 L459.45 118.94 L461.45 118.31 L463.45 117.74 L465.45 117.26 L467.45 116.85 L469.45 116.52 L471.45 116.27 L473.45 116.11 L475.45 116.02 L477.45 116.01 L479.45 116.08 L481.45 116.23 L483.45 116.46 L485.45 116.76 L487.45 117.15 L489.45 117.62 L491.45 118.16 L493.45 118.78 L495.45 119.48 L497.45 120.25 L499.45 121.09 L501.45 122.00 L503.45 122.99 L505.45 124.04 L507.35 125.11 L509.14 126.16 L510.83 127.21 L512.45 128.25 L514.01 129.29 L515.51 130.32 L516.96 131.35 L518.36 132.38 L519.73 133.40 L521.07 134.43 L522.37 135.45 L523.65 136.47 L524.90 137.49 L526.13 138.50 L527.33 139.52 L528.52 140.54 L529.69 141.55 L530.85 142.56 L531.98 143.58 L533.11 144.59 L534.22 145.60 L535.32 146.61 L536.41 147.62 L537.49 148.63 L538.56 149.63 L539.63 150.64 L540.68 151.65 L541.73 152.65 L542.77 153.66 L543.80 154.66 L544.83 155.67 L545.86 156.67 L546.88 157.68 L547.89 158.68 L548.91 159.68 L549.92 160.69 L550.92 161.69 L551.93 162.69 L552.93 163.69 L553.93 164.69 L554.93 165.69 L555.93 166.69 L556.93 167.69 L557.93 168.69 L558.93 169.69 L559.94 170.69 L560.94 171.69 L561.94 172.69 L562.95 173.68 L563.96 174.68 L564.98 175.68 L565.99 176.67 L567.02 177.67 L568.04 178.66 L569.07 179.66 L570.11 180.65 L571.15 181.65 L572.20 182.64 L573.26 183.63 L574.32 184.62 L575.40 185.61 L576.48 186.61 L577.57 187.60 L578.67 188.59 L579.79 189.57 L580.91 190.56 L582.06 191.55 L583.21 192.54 L584.38 193.52 L585.57 194.51 L586.78 195.49 L588.01 196.47 L589.26 197.45 L590.53 198.43 L591.83 199.41 L593.16 200.39 L594.52 201.36 L595.91 202.34 L597.35 203.31 L598.83 204.27 L600.36 205.24 L601.94 206.20 L603.59 207.16 L605.31 208.11 L607.11 209.06 L609.02 209.99 L611.02 210.91 L613.02 211.75 L615.02 212.52 L617.02 213.22 L619.02 213.84 L621.02 214.38 L623.02 214.85 L625.02 215.23 L627.02 215.54 L629.02 215.77 L631.02 215.92 L633.02 215.99 L635.02 215.98 L637.02 215.89 L639.02 215.73 L641.02 215.48 L643.02 215.15 L645.02 214.74 L647.02 214.26 L649.02 213.69 " style="fill:none;stroke:#000000;stroke-width:1;" /></g></svg>