<?xml version="1.0" standalone="no"?><!DOCTYPE svg PUBLIC "-//W3C//DTD SVG 1.1//EN" "http://www.w3.org/Graphics/SVG/1.1/DTD/svg11.dtd"><svg xmlns="http://www.w3.org/2000/svg" viewBox="0 0 650 400" version="1.1"><clipPath id="box"><rect x="0" y="0" width="650" height="400" style="fill:none;stroke:none;" /></clipPath><g clip-path="url(#box)"><rect x="0.00" y="0.00" width="650.00" height="400.00" style="fill:#FFFFFF;stroke:none;" /><path d="M0.00 391.00 L650.00 391.00 M0.00 341.00 L650.00 341.00 M0.00 291.00 L650.00 291.00 M0.00 241.00 L650.00 241.00 M0.00 191.00 L650.00 191.00 M0.00 141.00 L650.00 141.00 M0.00 91.00 L650.00 91.00 M0.00 41.00 L650.00 41.00 M33.00 0.00 L33.00 400.00 M83.00 0.00 L83.00 400.00 M134.00 0.00 L134.00 400.00 M184.00 0.00 L184.00 400.00 M234.00 0.00 L234.00 400.00 M284.00 0.00 L284.00 400.00 M334.00 0.00 L334.00 400.00 M383.00 0.00 L383.00 400.00 M434.00 0.00 L434.00 400.00 M483.00 0.00 L483.00 400.00 M534.00 0.00 L534.00 400.00 M584.00 0.00 L584.00 400.00 M634.00 0.00 L634.00 400.00 " style="fill:none;stroke:#D0D0D0;stroke-width:1;" /><path d="M84.00 0.00 L84.00 400.00 " style="fill:none;stroke:#000000;stroke-width:1;" /><path d="M77.50 441.00 L90.50 441.00 M77.50 391.00 L90.50 391.00 M77.50 341.00 L90.50 341.00 M77.50 291.00 L90.50 291.00 M77.50 241.00 L90.50 241.00 M77.50 191.00 L90.50 191.00 M77.50 141.00 L90.50 141.00 M77.50 91.00 L90.50 91.00 M77.50 41.00 L90.50 41.00 " style="fill:none;stroke:#000000;stroke-width:1;" /><path d="M0.00 191.00 L650.00 191.00 " style="fill:none;stroke:#000000;stroke-width:1;" /><path d="M-16.00 184.50 L-16.00 197.50 M34.00 184.50 L34.00 197.50 M84.00 184.50 L84.00 197.50 M134.00 184.50 L134.00 197.50 M184.00 184.50 L184.00 197.50 M234.00 184.50 L234.00 197.50 M284.00 184.50 L284.00 197.50 M334.00 184.50 L334.00 197.50 M384.00 184.50 L384.00 197.50 M434.00 184.50 L434.00 197.50 M484.00 184.50 L484.00 197.50 M534.00 184.50 L534.00 197.50 M584.00 184.50 L584.00 197.50 M634.00 184.50 L634.00 197.50 " style="fill:none;stroke:#000000;stroke-width:1;" /><text x="92.12499999999999" y="393.5" text-anchor="start" style="font:10px Droid Sans,Trebuchet MS,Arial,Helvetica,sans-serif;stroke:none;fill:#000000">-4</text><text x="92.12499999999999" y="343.5" text-anchor="start" style="font:10px Droid Sans,Trebuchet MS,Arial,Helvetica,sans-serif;stroke:none;fill:#000000">-3</text><text x="92.12499999999999" y="293.5" text-anchor="start" style="font:10px Droid Sans,Trebuchet MS,Arial,Helvetica,sans-serif;stroke:none;fill:#000000">-2</text><text x="92.12499999999999" y="243.5" text-anchor="start" style="font:10px Droid Sans,Trebuchet MS,Arial,Helvetica,sans-serif;stroke:none;fill:#000000">-1</text><text x="92.12499999999999" y="193.5" text-anchor="start" style="font:10px Droid Sans,Trebuchet MS,Arial,Helvetica,sans-serif;stroke:none;fill:#000000">0</text><text x="92.12499999999999" y="143.5" text-anchor="start" style="font:10px Droid Sans,Trebuchet MS,Arial,Helvetica,sans-serif;stroke:none;fill:#000000">1</text><text x="92.12499999999999" y="93.49999999999999" text-anchor="start" style="font:10px Droid Sans,Trebuchet MS,Arial,Helvetica,sans-serif;stroke:none;fill:#000000">2</text><text x="92.12499999999999" y="43.49999999999999" text-anchor="start" style="font:10px Droid Sans,Trebuchet MS,Arial,Helvetica,sans-serif;stroke:none;fill:#000000">3</text><text x="33.999999999999986" y="207.125" text-anchor="middle" style="font:10px Droid Sans,Trebuchet MS,Arial,Helvetica,sans-serif;stroke:none;fill:#000000">-1</text><text x="83.99999999999999" y="207.125" text-anchor="middle" style="font:10px Droid Sans,Trebuchet MS,Arial,Helvetica,sans-serif;stroke:none;fill:#000000">0</text><text x="134" y="207.125" text-anchor="middle" style="font:10px Droid Sans,Trebuchet MS,Arial,Helvetica,sans-serif;stroke:none;fill:#000000">1</text><text x="184" y="207.125" text-anchor="middle" style="font:10px Droid Sans,Trebuchet MS,Arial,Helvetica,sans-serif;stroke:none;fill:#000000">2</text><text x="234" y="207.125" text-anchor="middle" style="font:10px Droid Sans,Trebuchet MS,Arial,Helvetica,sans-serif;stroke:none;fill:#000000">3</text><text x="284" y="207.125" text-anchor="middle" style="font:10px Droid Sans,Trebuchet MS,Arial,Helvetica,sans-serif;stroke:none;fill:#000000">4</text><text x="334" y="207.125" text-anchor="middle" style="font:10px Droid Sans,Trebuchet MS,Arial,Helvetica,sans-serif;stroke:none;fill:#000000">5</text><text x="383.99999999999994" y="207.125" text-anchor="middle" style="font:10px Droid Sans,Trebuchet MS,Arial,Helvetica,sans-serif;stroke:none;fill:#000000">6</text><text x="434" y="207.125" text-anchor="middle" style="font:10px Droid Sans,Trebuchet MS,Arial,Helvetica,sans-serif;stroke:none;fill:#000000">7</text><text x="483.99999999999994" y="207.125" text-anchor="middle" style="font:10px Droid Sans,Trebuchet MS,Arial,Helvetica,sans-serif;stroke:none;fill:#000000">8</text><text x="534" y="207.125" text-anchor="middle" style="font:10px Droid Sans,Trebuchet MS,Arial,Helvetica,sans-serif;stroke:none;fill:#000000">9</text><text x="584" y="207.125" text-anchor="middle" style="font:10px Droid Sans,Trebuchet MS,Arial,Helvetica,sans-serif;stroke:none;fill:#000000">10</text><text x="634" y="207.125" text-anchor="middle" style="font:10px Droid Sans,Trebuchet MS,Arial,Helvetica,sans-serif;stroke:none;fill:#000000">11</text><path d="M-10.00 200.00 L-0.25 240.67 L0.75 240.78 L2.75 240.93 L4.75 240.99 L6.75 240.98 L8.75 240.89 L10.75 240.72 L12.75 240.47 L14.75 240.14 L16.75 239.73 L18.75 239.24 L20.75 238.68 L22.75 238.04 L24.75 237.32 L26.75 236.54 L28.75 235.67 L30.75 234.74 L32.75 233.74 L34.74 232.67 L36.61 231.61 L38.37 230.56 L40.04 229.51 L41.64 228.47 L43.18 227.43 L44.67 226.40 L46.10 225.37 L47.50 224.34 L48.86 223.32 L50.18 222.30 L51.48 221.27 L52.75 220.26 L53.99 219.24 L55.22 218.22 L56.42 217.20 L57.60 216.19 L58.77 215.18 L59.92 214.16 L61.05 213.15 L62.17 212.14 L63.28 211.13 L64.38 210.12 L65.47 209.11 L66.55 208.10 L67.61 207.09 L68.67 206.09 L69.73 205.08 L70.77 204.07 L71.81 203.07 L72.85 202.06 L73.87 201.06 L74.90 200.05 L75.91 199.05 L76.93 198.05 L77.94 197.04 L78.95 196.04 L79.96 195.04 L80.96 194.04 L81.96 193.04 L82.96 192.04 L83.96 191.04 L84.97 190.04 L85.97 189.04 L86.97 188.04 L87.97 187.04 L88.97 186.04 L89.97 185.04 L90.98 184.04 L91.99 183.05 L93.00 182.05 L94.01 181.05 L95.03 180.06 L96.05 179.06 L97.08 178.07 L98.11 177.07 L99.15 176.08 L100.20 175.08 L101.25 174.09 L102.31 173.10 L103.37 172.11 L104.45 171.12 L105.53 170.13 L106.63 169.14 L107.74 168.15 L108.85 167.16 L109.98 166.17 L111.13 165.18 L112.29 164.20 L113.46 163.21 L114.66 162.23 L115.87 161.24 L117.10 160.26 L118.36 159.28 L119.64 158.30 L120.95 157.32 L122.29 156.35 L123.66 155.37 L125.06 154.40 L126.51 153.43 L128.00 152.46 L129.54 151.50 L131.14 150.54 L132.81 149.58 L134.55 148.63 L136.38 147.69 L138.32 146.75 L140.32 145.86 L142.32 145.03 L144.32 144.28 L146.32 143.61 L148.32 143.01 L150.32 142.49 L152.32 142.04 L154.32 141.67 L156.32 141.39 L158.32 141.18 L160.32 141.05 L162.32 141.00 L164.32 141.03 L166.32 141.14 L168.32 141.33 L170.32 141.60 L172.32 141.95 L174.32 142.38 L176.32 142.89 L178.32 143.47 L180.32 144.13 L182.32 144.86 L184.32 145.67 L186.32 146.55 L188.32 147.50 L190.32 148.52 L192.28 149.59 L194.12 150.64 L195.86 151.70 L197.51 152.74 L199.10 153.78 L200.62 154.81 L202.09 155.85 L203.52 156.87 L204.91 157.90 L206.26 158.93 L207.58 159.95 L208.87 160.97 L210.13 161.99 L211.37 163.01 L212.59 164.02 L213.78 165.04 L214.96 166.05 L216.12 167.07 L217.27 168.08 L218.40 169.09 L219.52 170.10 L220.63 171.11 L221.72 172.12 L222.81 173.13 L223.88 174.14 L224.95 175.15 L226.01 176.15 L227.06 177.16 L228.10 178.17 L229.14 179.17 L230.17 180.18 L231.20 181.18 L232.22 182.19 L233.24 183.19 L234.25 184.19 L235.26 185.20 L236.27 186.20 L237.28 187.20 L238.28 188.20 L239.28 189.20 L240.28 190.20 L241.28 191.20 L242.28 192.20 L243.28 193.20 L244.28 194.20 L245.29 195.20 L246.29 196.20 L247.29 197.20 L248.30 198.20 L249.31 199.19 L250.32 200.19 L251.34 201.19 L252.36 202.18 L253.38 203.18 L254.41 204.17 L255.44 205.17 L256.48 206.16 L257.53 207.15 L258.58 208.15 L259.64 209.14 L260.71 210.13 L261.79 211.12 L262.87 212.11 L263.97 213.10 L265.08 214.09 L266.20 215.08 L267.34 216.07 L268.48 217.05 L269.65 218.04 L270.83 219.02 L272.03 220.01 L273.24 220.99 L274.48 221.97 L275.74 222.95 L277.03 223.93 L278.35 224.91 L279.69 225.89 L281.07 226.86 L282.48 227.83 L283.94 228.80 L285.44 229.77 L287.00 230.73 L288.61 231.69 L290.29 232.64 L292.06 233.59 L293.91 234.54 L295.88 235.47 L297.88 236.35 L299.88 237.16 L301.88 237.89 L303.88 238.54 L305.88 239.12 L307.88 239.63 L309.88 240.06 L311.88 240.40 L313.88 240.67 L315.88 240.86 L317.88 240.97 L319.88 241.00 L321.88 240.95 L323.88 240.82 L325.88 240.61 L327.88 240.32 L329.88 239.95 L331.88 239.50 L333.88 238.98 L335.88 238.38 L337.88 237.70 L339.88 236.95 L341.88 236.12 L343.88 235.23 L345.88 234.26 L347.88 233.22 L349.81 232.16 L351.62 231.10 L353.34 230.05 L354.98 229.01 L356.55 227.97 L358.06 226.94 L359.52 225.91 L360.94 224.88 L362.31 223.85 L363.66 222.83 L364.97 221.81 L366.25 220.79 L367.51 219.77 L368.74 218.75 L369.95 217.73 L371.15 216.72 L372.32 215.70 L373.48 214.69 L374.62 213.68 L375.75 212.67 L376.87 211.65 L377.97 210.64 L379.06 209.63 L380.15 208.63 L381.22 207.62 L382.28 206.61 L383.34 205.60 L384.39 204.60 L385.43 203.59 L386.47 202.59 L387.50 201.58 L388.52 200.58 L389.54 199.57 L390.56 198.57 L391.57 197.57 L392.58 196.56 L393.59 195.56 L394.60 194.56 L395.60 193.56 L396.60 192.56 L397.60 191.56 L398.60 190.56 L399.60 189.56 L400.60 188.56 L401.60 187.56 L402.61 186.56 L403.61 185.56 L404.61 184.56 L405.62 183.57 L406.63 182.57 L407.64 181.57 L408.66 180.58 L409.68 179.58 L410.71 178.58 L411.74 177.59 L412.77 176.60 L413.81 175.60 L414.86 174.61 L415.91 173.62 L416.98 172.62 L418.05 171.63 L419.13 170.64 L420.22 169.65 L421.32 168.66 L422.43 167.67 L423.55 166.68 L424.69 165.70 L425.84 164.71 L427.01 163.72 L428.19 162.74 L429.40 161.76 L430.62 160.77 L431.86 159.79 L433.13 158.81 L434.42 157.83 L435.75 156.86 L437.10 155.88 L438.48 154.91 L439.91 153.94 L441.38 152.97 L442.89 152.00 L444.46 151.04 L446.09 150.08 L447.79 149.13 L449.57 148.18 L451.46 147.24 L453.45 146.31 L455.45 145.45 L457.45 144.66 L459.45 143.94 L461.45 143.31 L463.45 142.74 L465.45 142.26 L467.45 141.85 L469.45 141.52 L471.45 141.27 L473.45 141.11 L475.45 141.02 L477.45 141.01 L479.45 141.08 L481.45 141.23 L483.45 141.46 L485.45 141.76 L487.45 142.15 L489.45 142.62 L491.45 143.16 L493.45 143.78 L495.45 144.48 L497.45 145.25 L499.45 146.09 L501.45 147.00 L503.45 147.99 L505.45 149.04 L507.35 150.11 L509.14 151.16 L510.83 152.21 L512.45 153.25 L514.01 154.29 L515.51 155.32 L516.96 156.35 L518.36 157.38 L519.73 158.40 L521.07 159.43 L522.37 160.45 L523.65 161.47 L524.90 162.49 L526.13 163.50 L527.33 164.52 L528.52 165.54 L529.69 166.55 L530.85 167.56 L531.98 168.58 L533.11 169.59 L534.22 170.60 L535.32 171.61 L536.41 172.62 L537.49 173.63 L538.56 174.63 L539.63 175.64 L540.68 176.65 L541.73 177.65 L542.77 178.66 L543.80 179.66 L544.83 180.67 L545.86 181.67 L546.88 182.68 L547.89 183.68 L548.91 184.68 L549.92 185.69 L550.92 186.69 L551.93 187.69 L552.93 188.69 L553.93 189.69 L554.93 190.69 L555.93 191.69 L556.93 192.69 L557.93 193.69 L558.93 194.69 L559.94 195.69 L560.94 196.69 L561.94 197.69 L562.95 198.68 L563.96 199.68 L564.98 200.68 L565.99 201.67 L567.02 202.67 L568.04 203.66 L569.07 204.66 L570.11 205.65 L571.15 206.65 L572.20 207.64 L573.26 208.63 L574.32 209.62 L575.40 210.61 L576.48 211.61 L577.57 212.60 L578.67 213.59 L579.79 214.57 L580.91 215.56 L582.06 216.55 L583.21 217.54 L584.38 218.52 L585.57 219.51 L586.78 220.49 L588.01 221.47 L589.26 222.45 L590.53 223.43 L591.83 224.41 L593.16 225.39 L594.52 226.36 L595.91 227.34 L597.35 228.31 L598.83 229.27 L600.36 230.24 L601.94 231.20 L603.59 232.16 L605.31 233.11 L607.11 234.06 L609.02 234.99 L611.02 235.91 L613.02 236.75 L615.02 237.52 L617.02 238.22 L619.02 238.84 L621.02 239.38 L623.02 239.85 L625.02 240.23 L627.02 240.54 L629.02 240.77 L631.02 240.92 L633.02 240.99 L635.02 240.98 L637.02 240.89 L639.02 240.73 L641.02 240.48 L643.02 240.15 L645.02 239.74 L647.02 239.26 L649.02 238.69 " style="fill:none;stroke:#000000;stroke-width:1;" /></g></svg>